<?xml version="1.0" encoding="UTF-8" standalone="no"?>
<!-- Generator: Adobe Illustrator 16.0.0, SVG Export Plug-In . SVG Version: 6.00 Build 0)  -->

<svg
   xmlns:dc="http://purl.org/dc/elements/1.1/"
   xmlns:cc="http://creativecommons.org/ns#"
   xmlns:rdf="http://www.w3.org/1999/02/22-rdf-syntax-ns#"
   xmlns:svg="http://www.w3.org/2000/svg"
   xmlns="http://www.w3.org/2000/svg"
   xmlns:sodipodi="http://sodipodi.sourceforge.net/DTD/sodipodi-0.dtd"
   xmlns:inkscape="http://www.inkscape.org/namespaces/inkscape"
   version="1.1"
   id="Layer_1"
   x="0px"
   y="0px"
   width="0.89999998cm"
   height="0.89999998cm"
   viewBox="0 0 34.015746 34.015747"
   enable-background="new 0 0 68.375 24"
   xml:space="preserve"
   sodipodi:docname="logo.svg"
   inkscape:version="0.92.1 r15371"><metadata
   id="metadata57"><rdf:RDF><cc:Work
       rdf:about=""><dc:format>image/svg+xml</dc:format><dc:type
         rdf:resource="http://purl.org/dc/dcmitype/StillImage" /><dc:title></dc:title></cc:Work></rdf:RDF></metadata><defs
   id="defs55" /><sodipodi:namedview
   pagecolor="#ffffff"
   bordercolor="#666666"
   borderopacity="1"
   objecttolerance="10"
   gridtolerance="10"
   guidetolerance="10"
   inkscape:pageopacity="0"
   inkscape:pageshadow="2"
   inkscape:window-width="2498"
   inkscape:window-height="1057"
   id="namedview53"
   showgrid="false"
   units="cm"
   inkscape:document-units="mm"
   inkscape:zoom="17.353923"
   inkscape:cx="50.971006"
   inkscape:cy="15.542049"
   inkscape:window-x="1134"
   inkscape:window-y="-8"
   inkscape:window-maximized="1"
   inkscape:current-layer="Layer_1" />

<path
   d="M 0,10.015749 H 24 V 34.015748 H 0 Z"
   id="path40"
   inkscape:connector-curvature="0"
   style="fill:none" />
<g
   id="g50"
   transform="translate(0,10.015749)">
	
	
	
	
</g>
<g
   transform="matrix(0.11752933,0,0,-0.11051755,0.981158,31.226408)"
   inkscape:label="ink_ext_XXXXXX"
   id="g18"
   style="fill:#ffffff"><g
     transform="scale(0.1)"
     id="g20"
     style="fill:#ffffff"><path
       inkscape:connector-curvature="0"
       id="path22"
       style="fill:#ffffff;fill-opacity:1;fill-rule:evenodd;stroke:none"
       d="m 997.816,1667.65 c 0,0 -9.054,-59.43 29.934,-80.22 38.98,-20.79 44.18,-20.79 44.18,-20.79 0,0 20.8,-90.97 41.59,-140.36 15.3,-36.33 22.15,-55.77 24.71,-63.51 l -42.56,-49.03 c -18.89,-21.76 -92.81,99.04 -370.998,169.63 -20.078,-48.19 19.957,-36.92 -1.184,-52.45 -44.086,25.15 -82.691,45.65 -107.777,55.56 -91.961,36.29 -109.57,-37.81 -174.496,-119.52 l -95.758,50.07 c 3.18,9.97 10.035,19.39 34.008,25.7 58.344,15.35 196.531,61.41 267.16,119.76 70.629,58.35 199.605,82.91 294.801,122.83 95.194,39.92 116.694,76.77 107.484,42.99 -1.11,-4.02 -2.12,-8.15 -3.02,-12.28 -28.29,-8.05 -42.7,-25.08 -45.31,-48.21 -1.822,-0.06 -2.764,-0.17 -2.764,-0.17 z M 1902.53,487.336 c 5.54,-30.152 32.77,-148.219 129.55,-222.133 111.67,-85.273 232.53,-63.18 232.53,-63.18 0,0 -97.98,30.637 -151.81,66.875 -53.83,36.243 -54.93,49.602 -54.93,49.602 0,0 133.67,-97.566 285.08,-123.801 151.41,-26.234 253.04,-21.472 289.89,-86.664 36.87,-65.1952 -4.55,-107.9685937 -4.55,-107.9685937 0,0 38.87,-5.9843763 44.56,96.1718937 5.69,102.1567 -86.37,156.5707 -86.37,156.5707 0,0 39.44,-8.887 70.02,-49.668 30.59,-40.782 33.96,-65.762 33.96,-65.762 0,0 29.6,126.434 -116.75,242.633 -146.36,116.203 -309.46,125.074 -309.46,125.074 0,0 34.33,17.262 111.43,-6.895 77.11,-24.156 124.03,-48.171 124.03,-48.171 0,0 -142.78,136.503 -297.7,157.531 -122.3,16.597 -195.88,0.418 -221.46,-7.133 -1.12,2.176 -2.6,3.77 -4.37,4.629 2.87,2.594 3.57,5.785 -1.72,9.348 -10.49,7.058 -24.65,6.527 -29.25,-2.907 -4.5,7.844 -9.42,15.75 -16.54,14.055 -9.83,13.746 -26.27,29.707 -50.94,51.211 -60.59,52.812 -103.45,51.625 -103.45,51.625 l 36.49,-30.582 c 0,0 -11.05,1.433 -44.17,14.719 -33.12,13.285 -66.32,8.597 -66.32,8.597 l 21.31,-23.656 -267.04,139.629 c 11.84,10.894 24.64,16.906 44.52,-0.582 52.47,-46.184 56.73,91.914 87.37,71.488 30.64,-20.426 76.6,51.067 76.6,51.067 0,0 5.43,56.061 46.28,20.316 40.86,-35.746 78.14,72.715 65.34,158.715 -86.06,-67.17 -213.96,28.11 -279.48,56.31 -65.5,28.2 -121.09,48.81 -121.09,48.81 l -42.48,80.72 -0.37,0.1 c -3.31,32.66 -11.19,150.04 40.47,194.08 60.29,51.39 51.34,100.05 49.01,116.37 -0.74,5.15 -4.27,11.75 -11.47,18.86 0.15,4.73 0.57,9.7 1.39,14.95 8.73,56 48.54,18.36 98.22,-14.76 49.68,-33.12 141.55,-126.75 214.23,-128.63 79.54,-2.04 214.76,104.44 261.12,104.44 11.59,0 14.71,-13.96 23.09,-19.54 2.61,-1.74 28.69,-12.38 41.86,-27.93 -25.43,-9.33 -43.33,-34.02 -42.73,-62.62 0.68,-31.67 23.82,-57.59 53.89,-62.85 -0.03,-0.89 -0.04,-1.79 -0.02,-2.71 0.13,-6.08 1.44,-11.61 3.5,-15.8 l -101.09,-62.44 c 0,0 -8.41,-1.65 -6.56,-9.99 1.85,-8.35 3.54,-8.87 3.54,-8.87 l 46.17,-227.57 c 0,0 -7.13,-6.29 -3.68,-11.25 3.46,-4.95 8.49,-4.84 8.49,-4.84 48.51,-15.52 96.39,-14.47 144.1,3.04 0,0 5.02,0.11 8.27,5.21 3.25,5.09 -4.15,11.09 -4.15,11.09 l 36.5,229.31 c 0,0 1.66,0.59 3.16,9.01 1.5,8.41 -6.98,9.71 -6.98,9.71 l -107.74,60.28 c 1.33,3.9 2.06,8.6 1.96,13.65 -0.02,0.91 -0.07,1.82 -0.14,2.71 29.82,6.53 51.85,33.4 51.18,65.07 -0.53,25.15 -15.25,46.69 -36.35,57.12 30.63,23.22 34.55,41.46 -0.93,94.53 -35.94,53.78 -257.75,-11.2 -330.62,-31.07 -72.86,-19.87 -157.4,106.99 -226.95,163.3 -69.55,56.3 -92.74,56.3 -135.8,56.3 -17.92,0 -42.74,3.44 -65.61,7.46 -6.68,3.87 -12.95,7.96 -18.56,12.33 -18.12,14.13 -28.78,31.72 -34.16,50.89 21.98,-23.21 49.64,-45.53 73.75,-44.12 49.31,2.91 105.88,36.27 133.44,7.26 27.56,-29.01 -1.45,-29.01 -1.45,-29.01 0,0 36.26,-10.16 21.75,31.91 -14.5,42.06 -52.21,34.81 -52.21,34.81 0,0 29.01,29.01 66.72,-8.7 37.71,-37.72 34.81,-76.88 84.13,-92.83 49.31,-15.96 73.97,30.46 73.97,30.46 0,0 -69.62,-18.86 -87.02,5.8 -17.41,24.66 -5.81,81.23 -37.72,118.94 -31.91,37.71 -78.32,30.46 -78.32,30.46 0,0 18.85,26.11 72.52,0 53.67,-26.11 44.97,-56.57 44.97,-56.57 0,0 20.3,52.22 -39.17,82.68 -59.47,30.45 -104.43,17.4 -126.19,26.1 -21.76,8.71 -36.26,15.96 -36.26,47.87 0,4.5 -0.67,9.01 -1.94,13.43 120.3,9.94 176.02,36.02 176.02,36.02 0,0 -24.77,3.02 -66.98,32.08 -39.56,27.24 -125.09,40.6 -135.71,42.18 -14.1,-6.5 -42.81,-13.12 -101.05,-11.51 l 1.61,25.71 c 42.63,-0.94 75.78,6.61 93.93,12.09 -6.25,39.41 -17.05,117.74 -18.39,195.48 -1.9,110.22 -21.08,178.94 -21.08,178.94 0,0 -14.17,-15.26 -120.27,-45.31 -106.1,-30.05 -141.22,-145.28 -141.22,-145.28 0,0 4.39,23.21 58.32,63.87 53.92,40.66 134.8,42.93 134.8,42.93 l 7.04,18.64 1.55,-22.11 8.59,20.01 -1.55,-24.86 c 0,0 -23.14,-111.58 -65.38,-176.45 -24.82,-38.15 -41.88,-73.73 -51.72,-96.58 12.14,-5.39 33.43,-12.17 69.72,-17.33 l -1.69,-26.95 c -42.19,4.22 -66.09,11.94 -79.48,18.64 -10.99,1.29 -95.68,10.44 -147.4,-5.51 -55.378,-17.08 -77.585,-20.09 -77.585,-20.09 0,0 67.429,-47.87 185.475,-76.75 -4.24,-15.52 -14.8,-40.61 -39.48,-45.54 -36.26,-7.25 -71.07,-13.06 -72.519,-52.22 -1.449,-39.16 24.659,-52.21 24.659,-52.21 0,0 -20.307,33.36 -2.9,55.11 17.4,21.76 40.61,11.6 40.61,11.6 0,0 -24.66,-10.15 -21.76,-40.61 2.91,-30.46 36.27,-53.67 21.76,-72.52 -14.51,-18.86 -62.369,8.7 -62.369,8.7 0,0 15.959,-40.61 53.669,-34.81 37.71,5.8 37.71,43.51 27.56,72.53 -10.16,29 18.85,47.86 44.96,49.31 3.85,0.21 7.22,0.51 10.21,0.98 0.29,-2.7 1.03,-6.27 2.72,-10.5 1.81,-4.54 5.64,-6.81 9.72,-7.27 -0.66,-0.97 -1.07,-2.32 -1.07,-3.83 0,-1.78 0.56,-3.35 1.44,-4.31 -0.88,-0.96 -1.44,-2.52 -1.44,-4.29 0,-1.68 0.5,-3.17 1.29,-4.14 -0.79,-0.97 -1.29,-2.46 -1.29,-4.13 0,-1.68 0.5,-3.17 1.29,-4.14 -0.79,-0.97 -1.29,-2.46 -1.29,-4.13 0,-1.38 0.34,-2.64 0.91,-3.59 -7.6,-0.97 -14.58,-5.26 -16.43,-12.68 -2.75,-10.98 -2.29,-18.76 3.2,-19.68 5.49,-0.92 8.7,-2.29 8.7,-5.95 0,-1.83 1.6,-2.98 2.69,-3.66 1.08,-0.69 2.57,-0.92 4.18,-0.92 3.2,0 8.42,0.92 8.42,4.58 0,3.66 3.21,5.03 8.7,5.95 5.49,0.92 5.95,8.7 3.2,19.68 -2.01,8.08 -9.53,12.27 -17.48,12.83 0.52,0.93 0.83,2.13 0.83,3.44 0,1.67 -0.51,3.16 -1.3,4.13 0.79,0.97 1.3,2.46 1.3,4.14 0,1.67 -0.51,3.16 -1.3,4.13 0.79,0.97 1.3,2.46 1.3,4.14 0,1.77 -0.57,3.33 -1.45,4.29 0.88,0.96 1.45,2.53 1.45,4.31 0,1.62 -0.48,3.07 -1.23,4.04 3.16,0.65 6.09,2.29 7.94,4.71 l 0.05,0.09 c 8.82,-14.94 20.14,-27.35 33.36,-36.23 4.03,-43.16 2.17,-94.57 -26.34,-108.73 -3.57,-1.77 -6.96,-3.29 -10.16,-4.59 -7.72,0.47 -18.38,1.62 -33.14,3.84 -61.42,9.21 -89.06,-15.36 -178.114,-67.56 C 852.371,1771.3 781.742,1703.75 615.918,1645.4 450.094,1587.05 364.109,1498 314.973,1473.43 c -21.696,-10.84 -37.996,-12.71 -50.5,-14.05 L 18.9297,1587.77 0,1551.57 230.152,1431.22 c -2.211,-29.92 40.024,-66.98 84.821,-52.98 3.629,1.13 6.746,2.37 9.445,3.69 l 89.434,-46.76 c -81.039,-89.63 -223.375,-230.13 -225.848,-299.31 -2.598,-72.778 12.996,-90.969 0,-150.751 -12.992,-59.781 -36.387,-80.574 -57.18,-70.175 -20.793,10.394 -10.394,31.187 -10.394,31.187 0,0 -25.9964,-20.793 -2.602,-54.582 23.391,-33.789 70.176,-5.199 70.176,-5.199 0,0 23.394,31.191 41.59,46.785 18.191,15.594 20.793,15.594 20.793,15.594 0,0 -12.996,93.57 5.195,122.164 18.195,28.59 18.195,-25.992 12.996,-54.586 -5.195,-28.59 -2.598,-64.977 -2.598,-64.977 l 20.793,12.996 c 0,0 -5.195,59.782 12.997,101.368 18.191,41.586 23.394,59.776 5.199,83.176 -18.196,23.39 -33.789,41.59 25.992,83.17 58.09,40.41 175.008,51.27 212.57,135.33 l 159.637,-83.47 -0.152,-0.15 c -56.168,-51.06 81.707,-45.95 40.851,-91.92 -40.851,-45.95 25.535,-35.74 15.321,-76.59 -10.211,-40.851 97.023,-25.535 81.703,-86.812 -10.371,-41.504 26.101,-50.211 61.828,-67.371 C 881.457,838.641 862.723,817.625 846.836,797.883 800.051,739.734 733.957,704.871 711.887,676.727 694.434,654.473 679.957,635.109 664.684,616.742 409.301,340.582 333.074,367.68 311.719,264.125 297.008,192.805 309.348,172.27 286.559,115.496 263.766,58.7188 237.238,42.1211 218.469,55.8438 c -18.766,13.7226 -5.051,32.4882 -5.051,32.4882 0,0 -29.098,-16.164 -11.672,-53.3867 17.426,-37.22264 68.324,-16.8437 68.324,-16.8437 0,0 28.278,26.8554 48.821,39.1953 20.543,12.3398 23.101,11.9062 23.101,11.9062 0,0 2.801,94.4259 25.516,119.5779 22.715,25.157 13.609,-28.656 3.707,-55.98 -9.906,-27.317 -13.414,-63.633 -13.414,-63.633 l 22.672,9.3359 c 0,0 4.859,59.8201 29.738,97.7771 24.883,37.961 33.039,55.043 19.004,81.137 -14.035,26.102 -23.34,48.078 39.515,77.672 62.86,29.594 191.188,90.215 235.129,150.601 19.028,20.942 32.879,37.461 56.606,81.461 23.726,44 273.425,159.282 361.135,207.5 22.9,12.582 50.22,30.934 77.56,51.961 12.55,-1.441 26.4,-7.816 41.86,-21.66 88.5,-79.262 69.67,82.61 136.05,21.336 18.21,-16.801 31.64,-20.125 42.65,-17.09 l 263.57,-137.812 c 2.93,-4.77 6.19,-9.66 9.78,-14.532 21.99,-29.82 46.04,-61.039 46.04,-61.039 l -38.65,14.004 c 0,0 15.11,-22.191 66.12,-53.531 33.44,-20.539 76.41,-30.723 102.06,-35.309 -1.93,-8.699 -2.29,-22.609 15.3,-22.292 22.04,0.402 2.97,-12.833 18.59,-11.352 z M 1141.67,1975.74 c 0.22,-0.23 -7.96,-3.87 -10.01,-0.45 -2.05,3.41 1.93,10.57 5.91,10.34 3.98,-0.23 4.1,-9.89 4.1,-9.89 z m 8.99,0 c 0,0 0.12,9.66 4.1,9.89 3.98,0.23 7.95,-6.93 5.91,-10.34 -2.04,-3.42 -10.23,0.22 -10.01,0.45 z m 919.59,-389.91 c -1.7,-0.04 -3.38,-0.13 -5.04,-0.29 -0.28,0.75 -0.59,1.52 -0.92,2.31 -14.61,34.78 -31.75,36.52 -9.06,44.12 22.69,7.6 34.97,-25.81 25.03,-42.37 -0.81,-1.35 -1.57,-2.71 -2.28,-4.06 -2.53,0.25 -5.11,0.34 -7.73,0.29 z m 0.3,-14.22 c 1,0.03 1.98,0.02 2.96,-0.02 0.08,-4.73 3.49,-6.56 12.43,-2 20.79,-6.08 36.19,-25.07 36.68,-47.88 0.52,-24.99 -17.03,-46.17 -40.68,-51.02 -2.42,4.56 -5.76,7.37 -9.4,7.29 -3.65,-0.07 -6.88,-3.02 -9.1,-7.68 -23.83,3.84 -42.26,24.26 -42.79,49.25 -0.49,23.31 14.74,43.32 35.99,49.84 4.36,-6.83 10.77,-6.2 11.34,2.11 0.85,0.06 1.71,0.1 2.57,0.11 z m 4.34,-449.7 c -0.85,-0.02 -12.69,-4.53 -32.41,1.02 -19.71,5.54 -26.6,8.81 -26.6,8.81 l -43.04,221.52 97.39,-11.58 z m 15.33,0.32 -4.65,219.78 96.82,15.69 -33.62,-223.15 c 0,0 -6.75,-3.55 -26.21,-9.93 -19.47,-6.37 -31.49,-2.37 -32.34,-2.39 z m -1531.224,183.14 115.129,-60.19 c 7.832,13.02 6.809,23.38 4.574,32.84 -20.082,16.42 -35.511,29.58 -43.5,37.57 -33.906,33.91 -50.285,46.83 -76.203,-10.22" /></g></g></svg>